<?xml version="1.0" encoding="UTF-8"?>
<svg id="Ebene_1" data-name="Ebene 1" xmlns="http://www.w3.org/2000/svg" viewBox="0 0 542.23 599.76">
  <defs>
    <style>
      .cls-1 {
        fill: #161923;
      }

      .cls-1, .cls-2, .cls-3, .cls-4, .cls-5, .cls-6 {
        stroke-width: 0px;
      }

      .cls-2 {
        fill: #242934;
      }

      .cls-3 {
        fill: #dde4ee;
      }

      .cls-4 {
        fill: #cfd9e5;
      }

      .cls-5 {
        fill: #fdfdfd;
      }

      .cls-6 {
        fill: #020202;
      }
    </style>
  </defs>
  <path class="cls-3" d="m463.02,573.4c7.68-6.51,16.08-12.36,22.92-19.67,19.83-21.2,30.57-46.53,31.25-75.7.53-22.53-5.57-43.53-16.97-62.79-4.16-7.01-5.86-12.76.58-18.91.44-.42.67-1.05.99-1.58,13.4-22.43,20.81-46.79,23.66-72.67,4.34-39.32-2.79-76.53-20.35-111.84-3.47-6.98-3.54-6.95,2.32-12.01,30.61-26.44,42.75-69.76,29.52-107.93-10.39-29.98-29.68-52.23-60.06-63.14-28.47-10.23-55.75-6.09-81.65,9.04-1.89,1.11-4.4,1.73-6.59,1.66-11.97-.37-23.73.76-35.07,4.67-5.49,1.9-10.77,4.4-16.14,6.63-4.37-13.46-10.35-24.25-19.43-34.22-5.22-5.74-10.78-11.2-18.3-13.93-9.3-3.38-16.46,2.01-15.81,11.82.1,1.49.31,2.98.53,4.46,2.61,17.75-9.06,37.3-30.73,39.64-14.47,1.56-28.86,4.3-43.08,7.44-10.16,2.24-19.99,6.02-30.27,9.21-3.16-4.71-6.34-10.09-10.13-14.99C137.75,16.77,80.62,9.39,38.98,42.02,16.06,59.99,3.13,83.95.45,113.01c-1.95,21.21,2.36,41.26,13.38,59.67,7.12,11.9,16.15,22.15,27.23,30.91-1.88,3.76-3.78,7.38-5.54,11.08-15.17,31.99-20.72,65.68-18.18,100.89,2.24,31.01,11.16,59.75,28.37,85.74,1.97,2.97,1.77,5.2-.09,8.03-7.65,11.66-13.43,24.19-16.78,37.78-10.01,40.57-.12,76.19,27.55,106.89,6.6,7.33,15.05,13,22.64,19.43-.8.25-1.58.58-2.39.74-5.47,1.06-11.01,1.83-16.4,3.2-3.42.87-5.39,3.46-5.24,7.28.13,3.03,2.82,6.85,5.81,7.5,4.48.96,9.02,1.74,13.57,2.29,7.76.93,15.54,1.68,23.33,2.41,10.75,1.01,21.5,2.73,32.25,2.76,92.09.22,184.17.2,276.26.02,11.28-.02,22.58-1.2,33.83-2.28,12.59-1.21,25.12-2.92,37.69-4.38,4.64-.54,8.4-4.19,8.57-8.42.2-4.9-1.87-7.06-7.72-8.15-5.2-.97-10.39-1.98-15.58-2.98Z"/>
  <path class="cls-6" d="m79.05,573.43c-7.6-6.43-16.04-12.1-22.64-19.43-27.67-30.7-37.56-66.31-27.55-106.89,3.35-13.59,9.13-26.12,16.78-37.78,1.86-2.83,2.05-5.06.09-8.03-17.21-25.99-26.13-54.73-28.37-85.74-2.54-35.21,3.01-68.91,18.18-100.89,1.75-3.7,3.65-7.32,5.54-11.08-11.08-8.77-20.11-19.02-27.23-30.91C2.81,154.27-1.5,134.22.45,113.01c2.67-29.06,15.61-53.03,38.53-70.99,41.64-32.64,98.77-25.25,131.19,16.57,3.8,4.9,6.97,10.28,10.13,14.99,10.29-3.19,20.11-6.97,30.27-9.21,14.22-3.14,28.62-5.88,43.08-7.44,21.67-2.34,33.34-21.88,30.73-39.64-.22-1.48-.43-2.97-.53-4.46-.64-9.81,6.52-15.2,15.81-11.82,7.52,2.73,13.08,8.19,18.3,13.93,9.07,9.97,15.06,20.76,19.43,34.22,5.37-2.23,10.65-4.73,16.14-6.63,11.34-3.92,23.1-5.04,35.07-4.67,2.19.07,4.7-.56,6.59-1.66,25.91-15.12,53.18-19.27,81.65-9.04,30.38,10.92,49.67,33.17,60.06,63.14,13.23,38.17,1.09,81.49-29.52,107.93-5.86,5.06-5.79,5.03-2.32,12.01,17.56,35.31,24.68,72.52,20.35,111.84-2.85,25.88-10.26,50.24-23.66,72.67-.32.54-.55,1.17-.99,1.58-6.44,6.15-4.73,11.9-.58,18.91,11.41,19.25,17.5,40.26,16.97,62.79-.68,29.18-11.42,54.51-31.25,75.7-6.84,7.31-15.23,13.15-22.92,19.67-5.94,2.84-11.85,5.73-17.83,8.5-9.43,4.36-19.53,6.85-29.73,7.15-20.58.6-41.2.05-61.8.05-73.44.02-146.89.05-220.33.13-14.09.02-27.51-2.86-40.27-8.77-4.74-2.2-9.35-4.68-14.01-7.03ZM506.49,155.67c1.14-3.11,2.13-6.28,3.46-9.31,5.18-11.79,5-24.12,3.62-36.5-1.25-11.26-5.92-21.32-12.28-30.54-6.19-8.98-14-16.24-23.73-21.51-7.82-4.23-16.08-6.79-24.78-7.51-6.93-.57-13.96-.01-20.94.04-.1.51-.2,1.01-.3,1.52,3.36,2.43,7.06,4.51,9.99,7.38,3.55,3.48,7.65,4.54,12.32,5.03,16.74,1.77,29.33,10.71,38.69,24.07,11.81,16.88,13.43,35.71,8.7,55.36-.24.74-.48,1.48-.72,2.22-.02.5-.05,1.01-.07,1.51-.69,1-1.45,1.96-2.07,3-3.32,5.62-6.26,11.51-10,16.83-3.83,5.46-4.17,5.22.45,10.07,6-3.96,13.69-13.4,17.67-21.67ZM124.11,105.51c1.98-1.14,3.96-2.27,7.25-4.16-2.03-1.39-3.31-2.16-4.47-3.08-6.59-5.25-13.59-9.29-22.29-10.3-9.8-1.14-19.11-.29-27.58,4.91-11.37,6.99-17.62,17.56-19.61,30.56-.64,4.16-.11,8.5-.12,12.76.99,9.06,2.7,17.84,9.53,25.28,3.62-4.42,7-8.48,10.32-12.6,9.73-12.06,20.97-22.59,32.97-32.33,4.61-3.74,9.33-7.37,13.99-11.04Zm-85.41,29.95c-.03-6.12-.88-12.36.07-18.33,3.01-19.1,11.85-34.6,29.28-44.42,17.71-9.99,35.76-10.31,54.11-2.27,10.1,4.43,18.13,11.67,25.35,20.28,1.8-1.16,3.42-2.27,5.11-3.27,2.12-1.26,2.8-2.65,1-4.78-3.11-3.69-5.99-7.59-9.18-11.2-7.06-7.98-15.83-13.75-25.65-17.51-12.48-4.78-25.51-5.53-38.49-1.97-13.48,3.7-24.81,10.87-34.23,21.39-11.83,13.21-17.94,28.5-17.97,46.12,0,6.31.99,12.61,1.53,18.92.22.51.45,1.03.67,1.54.46,1.04.93,2.07,1.39,3.11.17,1.47-.06,3.16.58,4.39,3.25,6.23,6.35,12.58,10.23,18.4,2.95,4.41,7,8.08,10.93,12.5,2.03-2.64,3.36-4.37,4.8-6.24-6.99-7.76-12.68-15.98-16.06-25.63-.45-1.29-1.35-2.41-2.05-3.61-.04-1.22-.08-2.44-.11-3.65-.44-1.25-.88-2.51-1.31-3.76Zm185.8,404.26c-1.16,6.93-2.32,13.87-3.47,20.76h101.08c-1.16-7.09-2.28-13.95-3.4-20.82-.14-10.53,1.48-20.76,5.18-30.64,1.48-2.92,2.96-5.83,4.68-9.21-19.38,3.41-38.32,4.91-57.29,4.45-18.84-.46-37.65-2-56.45-3.07,1.3,2.56,2.81,5.53,4.32,8.51,3.59,9.69,5.41,19.7,5.36,30.03Zm122.32-11.99c-.49,3.48-.98,6.96-1.46,10.44.8,5.13,1.07,10.43,2.61,15.33.91,2.9,1.73,7.24,6.41,7.2,21.32-.2,42.65-.22,63.96-.81,11.47-.32,21.58-5.46,30.94-11.6,11.85-7.78,21.38-17.9,28.77-30.16,7.6-12.61,10.66-26.27,11.11-40.74-.52-6.26-.56-12.62-1.71-18.76-.95-5.11-3.21-9.99-4.89-14.96-1.81-3.91-3.43-7.92-5.51-11.69-1.42-2.58-3.23-1.79-5.07.09-10.27,10.43-21.69,19.4-34.56,26.44-7.6,4.15-15.12,8.48-22.93,12.2-10.52,5.01-21.3,9.45-31.93,14.24-4.49,2.02-9.28,3.72-13.19,6.58-8.85,6.48-15.18,15.25-19.63,25.22-1.53,3.42-1.99,7.31-2.93,10.98Zm-150.8-.02c-.23-1.59-.3-3.22-.73-4.76-1.98-7.01-5.44-13.23-9.96-18.95-5.48-6.94-11.66-12.91-19.92-16.45-9-3.85-18.03-7.65-26.94-11.69-6.65-3.01-13.24-6.18-19.69-9.6-10.26-5.44-20.47-11.05-29.52-18.42-6.45-5.25-12.63-10.83-19-16.17-1.25-1.05-3.06-2.64-4.4-.31-1.85,3.22-3.27,6.68-4.87,10.04-.41.62-.98,1.18-1.2,1.85-3.46,10.62-7.32,21.17-5.59,32.68-.23.68-.63,1.36-.66,2.05-.39,9.43.97,18.6,4.57,27.33,6.7,16.25,16.65,30.09,31.09,40.35,12,8.52,25,14.81,40.08,14.98,19.47.22,38.94-.03,58.4.13,3.17.03,4.77-1.24,6.03-3.83,2.89-5.94,4.26-12.15,3.82-18.75-.5-3.5-1.01-7-1.51-10.49Zm116.99-438c.07-2.11.13-4.23.21-6.34.2-5.21.84-10.44.49-15.61-.46-6.92-2.66-13.46-6.55-20.06-.9,2.5-1.57,4.35-2.23,6.21-4.22,12.03-12.04,20.75-23.66,26.12-8.19,3.78-16.97,5.04-25.77,5.79-33.17,2.82-64.27,12.17-93.07,28.91-15.98,9.29-31.14,19.76-44.4,32.76-.97.75-2.01,1.44-2.91,2.27-22.11,20.2-39.74,43.73-52.29,70.97-18.05,39.2-24.21,79.84-13.67,122.18,7.55,30.32,23.07,55.95,47.31,75.9,17.78,14.64,37.97,25.21,59.13,34.12,49.08,20.66,100.03,27.92,152.83,21.31,38.55-4.82,74.84-16.83,108.76-35.87,19.66-11.04,37.53-24.27,51.55-42.19,22.03-28.16,30.84-60.61,30.79-95.83-.05-32.93-10.2-63.12-25.67-91.74-7.16-13.25-16.57-24.93-26.21-36.43-3.5-4.18-3.3-4.6-.21-9.08,4.61-6.66,6.45-14.17,6.71-22.44-2.35-.2-4.45-.28-6.52-.56-2.78-.38-3.78.64-4.31,3.51-2.68,14.46-10.18,26.3-21.49,35.41-29.29,23.58-72.74,10.83-85.02-24.73-9.35-27.06,2.34-56.35,27.17-67.33,14.74-6.51,29.69-7.06,44.63-.28,1.26.57,3.53.88,4.34.18,3.15-2.78,5.9-6.01,9.1-9.38-2.08-1.5-3.8-2.92-5.68-4.06-21.44-13.03-52.98-10.81-73.73,5.28-5.12,3.97-9.72,8.64-14.97,12.39-5.6,4-9.78,3.31-14.66-1.37Zm76.25,51.04c-1.2-1.11-2.4-2.17-3.53-3.29-4.43-4.4-8.68-8.98-13.29-13.18-5.03-4.58-12.29-2.98-15.37,3.09-2.23,4.39-1.48,8.24,2.71,12.48,6.93,7.01,13.96,13.94,20.97,20.88,5.06,5.01,10.18,5.37,15.59.76,3.41-2.91,6.5-6.19,9.7-9.35,10.2-10.1,20.38-20.22,30.57-30.32,2.4-2.38,4.53-3.96,8.7-3.11,12.12,2.47,22.54-7.63,20.44-19.09-1.45-7.92-7.28-13.4-15.16-14.28-7.49-.83-14.57,3.37-17.77,10.45-.9,2-1.55,4.36-3.04,5.81-13.28,13.01-26.73,25.86-40.52,39.14Zm96.21-13.31c-3.21,2.01-4.41,4.31-4.52,7.64-.17,5.42-.88,10.83-1.3,16.25-.05.59.27,1.21.61,2.61,4.35-8.73,5.53-17.17,5.21-26.5Zm-6.4,28.04c-.04.11-.1.22-.1.32,0,.04.17.07.26.1.04-.11.1-.22.1-.32,0-.04-.17-.07-.26-.1Z"/>
  <path class="cls-4" d="m79.05,573.43c4.67,2.35,9.27,4.83,14.01,7.03,12.76,5.91,26.18,8.78,40.27,8.77,73.44-.08,146.89-.11,220.33-.13,20.6,0,41.22.55,61.8-.05,10.19-.3,20.3-2.79,29.73-7.15,5.97-2.76,11.89-5.66,17.83-8.5,5.19.99,10.38,2.01,15.58,2.98,5.85,1.09,7.91,3.25,7.72,8.15-.17,4.23-3.93,7.88-8.57,8.42-12.56,1.46-25.1,3.18-37.69,4.38-11.25,1.08-22.55,2.26-33.83,2.28-92.09.18-184.17.2-276.26-.02-10.75-.03-21.51-1.75-32.25-2.76-7.78-.73-15.57-1.48-23.33-2.41-4.55-.55-9.09-1.33-13.57-2.29-2.99-.64-5.69-4.47-5.81-7.5-.16-3.81,1.81-6.41,5.24-7.28,5.39-1.37,10.93-2.14,16.4-3.2.81-.16,1.59-.49,2.39-.74Z"/>
  <path class="cls-5" d="m118.05,147.48c13.26-13,28.42-23.47,44.4-32.76,28.8-16.74,59.9-26.09,93.07-28.91,8.8-.75,17.57-2.01,25.77-5.79,11.62-5.36,19.44-14.09,23.66-26.12.65-1.86,1.33-3.71,2.23-6.21,3.88,6.6,6.09,13.13,6.55,20.06.34,5.17-.3,10.4-.49,15.61-.08,2.11-.14,4.23-.21,6.34-.42.43-1.06.79-1.24,1.31-2.16,6.1-4.33,12.19-6.33,18.33-4.34,13.29-5.59,26.96-5.24,40.9.29,11.58,3.22,22.46,8.53,32.5,9.15,17.27,23.62,28.74,41.91,35.26,17.81,6.35,36.19,9.04,55.06,6.6,6.62-.86,13.35-2.01,19.64-4.16,10.17-3.48,19.5-8.79,27.93-15.58,4.61-3.71,5.16-3.69,7.78,1.73,4.47,9.26,9.08,18.5,12.89,28.03,9.68,24.2,14.62,49.19,12.49,75.48-1.62,20-6.21,38.95-15.97,56.57-6.39,11.54-14.11,22.14-24.18,30.57-8.94,7.48-18.61,14.16-28.41,20.51-16.57,10.75-34.6,18.67-53.26,24.99-15.18,5.14-30.61,9.62-46.58,11.63-13.05,1.64-26.12,3.29-39.24,4.17-8.17.55-16.48.13-24.65-.68-12.46-1.24-24.98-2.55-37.23-5.02-12.39-2.5-24.52-6.33-36.7-9.8-15.52-4.43-30.21-11.01-44.27-18.81-11.63-6.45-22.86-13.55-33.24-22.08-9.87-8.11-18.2-17.45-24.93-28.07-8.65-13.64-14.65-28.5-17.92-44.44-3.28-15.98-4.69-32.14-2.32-48.23,2.86-19.4,7.01-38.64,15.57-56.51,6.88-14.37,13.71-28.79,21.45-42.7,4.94-8.88,11.5-16.84,17.28-25.25,2.14-3.11,4.15-6.32,6.22-9.49Zm-29.83,173.78c.31,2.6.62,6.59,1.29,10.51,5.62,32.77,40.85,64.83,84.27,48.47,21.25-8,35.93-23.58,45.91-43.52,10.34-20.66,13.74-41.91,4.17-64.16-14.02-32.59-46.73-46.7-79.22-33.62-14.16,5.7-25.33,15.36-34.88,26.99-12.87,15.67-20.59,33.46-21.54,55.33Zm284.28-87.56c-4.62.94-9.35,1.51-13.83,2.9-29.52,9.13-48.75,41.89-43.19,73.04,4.42,24.78,16.32,45.11,36.24,60.48,14.74,11.37,31.28,16.5,50.12,13.66,34.4-5.19,59.48-40.74,52.52-74.84-4.97-24.33-17.43-44.08-36.81-59.42-13.1-10.37-27.92-16.24-45.05-15.83Zm-100.28,171.79c5.67,6.59,12.73,8.16,20.79,6.75,9.46-1.66,18.26-9.3,19.68-17.23.76-4.24-1.3-8.5-4.83-9.98-3.35-1.4-6.17-.14-8.94,4.02-.48.73-.91,1.5-1.46,2.17-2.28,2.79-5.19,4.21-8.84,3.84-3.54-.36-6.18-2.06-7.07-5.62-1.31-5.23-.14-7.96,3.36-10.24,2.9-1.89,5.9-3.88,8.16-6.43,6.43-7.27,3.01-18.9-6.51-20.02-9.69-1.13-19.67-.55-29.44.27-5.64.48-8.85,5.64-8.68,11.37.22,7.22,4.81,11.44,10.46,14.9,1.34.82,3.07,1.58,3.74,2.84,1.74,3.26-.03,9.6-2.83,11.57-3.34,2.35-8.4,1.9-11.62-1.29-1.58-1.56-2.52-3.89-4.27-5.14-1.86-1.33-4.51-2.76-6.5-2.39-2.01.37-4.28,2.56-5.26,4.54-2,4.03-.54,8.1,1.73,11.67,8.84,13.9,28.22,15.4,38.33,4.39Z"/>
  <path class="cls-4" d="m118.05,147.48c-2.07,3.17-4.08,6.37-6.22,9.49-5.79,8.41-12.35,16.38-17.28,25.25-7.73,13.91-14.57,28.34-21.45,42.7-8.56,17.87-12.71,37.11-15.57,56.51-2.37,16.09-.96,32.24,2.32,48.23,3.27,15.94,9.27,30.8,17.92,44.44,6.73,10.62,15.07,19.96,24.93,28.07,10.38,8.53,21.61,15.63,33.24,22.08,14.06,7.79,28.75,14.38,44.27,18.81,12.18,3.47,24.31,7.3,36.7,9.8,12.25,2.47,24.77,3.78,37.23,5.02,8.17.81,16.48,1.23,24.65.68,13.11-.88,26.19-2.52,39.24-4.17,15.97-2.01,31.4-6.49,46.58-11.63,18.66-6.32,36.69-14.24,53.26-24.99,9.79-6.35,19.47-13.03,28.41-20.51,10.07-8.43,17.8-19.03,24.18-30.57,9.76-17.62,14.35-36.57,15.97-56.57,2.13-26.29-2.81-51.28-12.49-75.48-3.82-9.54-8.42-18.77-12.89-28.03-2.62-5.42-3.18-5.45-7.78-1.73-8.43,6.79-17.76,12.1-27.93,15.58-6.29,2.15-13.01,3.3-19.64,4.16-18.86,2.45-37.25-.24-55.06-6.6-18.28-6.52-32.76-17.99-41.91-35.26-5.32-10.04-8.24-20.92-8.53-32.5-.35-13.94.9-27.61,5.24-40.9,2.01-6.15,4.18-12.24,6.33-18.33.18-.52.82-.88,1.24-1.31,4.89,4.68,9.07,5.38,14.66,1.37,5.26-3.76,9.85-8.42,14.97-12.39,20.74-16.09,52.28-18.31,73.73-5.28,1.88,1.14,3.6,2.56,5.68,4.06-3.2,3.38-5.95,6.61-9.1,9.38-.8.71-3.07.4-4.34-.18-14.95-6.79-29.9-6.24-44.63.28-24.83,10.98-36.52,40.26-27.17,67.33,12.29,35.56,55.74,48.31,85.02,24.73,11.32-9.11,18.81-20.95,21.49-35.41.53-2.87,1.53-3.89,4.31-3.51,2.07.28,4.16.37,6.52.56-.26,8.27-2.1,15.77-6.71,22.44-3.09,4.47-3.3,4.89.21,9.08,9.64,11.5,19.05,23.18,26.21,36.43,15.47,28.63,25.62,58.82,25.67,91.74.06,35.23-8.76,67.67-30.79,95.83-14.02,17.92-31.89,31.15-51.55,42.19-33.92,19.05-70.21,31.05-108.76,35.87-52.8,6.61-103.75-.65-152.83-21.31-21.16-8.91-41.35-19.48-59.13-34.12-24.24-19.96-39.76-45.58-47.31-75.9-10.54-42.34-4.38-82.98,13.67-122.18,12.54-27.24,30.17-50.76,52.29-70.97.91-.83,1.94-1.52,2.91-2.27Z"/>
  <path class="cls-2" d="m54.21,475.94c-1.73-11.51,2.13-22.06,5.59-32.68.22-.68.79-1.24,1.2-1.85,2.21,2.34,4.39,4.71,6.64,7.01,7.93,8.13,17.94,13.27,27.68,18.64,11.49,6.33,23.5,11.72,35.14,17.78,14.98,7.8,30.08,15.41,44.6,24.01,6.47,3.84,11.65,9.87,17.37,14.96,1.31,1.17,2.4,2.58,3.6,3.89.5,3.5,1.01,7,1.51,10.49-5.18,1.45-10.31,3.14-15.57,4.27-6.17,1.33-12.41,2.84-18.67,3.1-18.34.78-36.35-1.15-53.96-7-11.8-3.92-22.09-10.08-31.17-18.23-11.02-9.88-18.63-22.01-21.92-36.63-.59-2.61-1.35-5.18-2.03-7.76Z"/>
  <path class="cls-2" d="m345.37,538.16c.49-3.48.98-6.96,1.46-10.44.69-.46,1.54-.78,2.03-1.39,1.91-2.41,3.54-5.06,5.59-7.35,6.92-7.76,16.24-12.18,24.92-17.47,3.59-2.19,7.34-4.14,11.12-5.98,8.31-4.06,16.77-7.83,25.03-11.99,12.52-6.31,24.88-12.92,37.38-19.26,9.54-4.84,18.71-10.16,26.11-18.09.97-1.04,2.37-1.68,3.57-2.51,1.68,4.98,3.93,9.85,4.89,14.96,1.15,6.15,1.19,12.5,1.71,18.76-.71.78-1.83,1.45-2.05,2.35-.77,3.1-.6,6.59-1.92,9.38-3.54,7.45-7.22,14.9-11.68,21.82-5.04,7.82-12.44,13.67-20.3,18.35-9.19,5.47-19.19,9.73-29.68,12.03-9.53,2.08-19.28,3.59-29.01,4.24-14.3.96-28.48-.54-42.22-5.06-2.32-.76-4.63-1.56-6.94-2.34Z"/>
  <path class="cls-5" d="m323.9,509.01c-3.7,9.88-5.32,20.11-5.18,30.64-1.36.12-2.72.22-4.07.38-11.67,1.39-23.3,3.48-35.01,3.97-10.87.46-21.82-.54-32.7-1.36-7.51-.57-14.96-1.93-22.43-2.93.05-10.34-1.77-20.34-5.36-30.03,2.49.05,5-.07,7.48.17,9,.88,17.99,2.66,26.99,2.68,18.65.03,37.32-.73,55.96-1.44,4.79-.18,9.55-1.36,14.32-2.08Z"/>
  <path class="cls-5" d="m389.27,140.75c13.8-13.28,27.24-26.13,40.52-39.14,1.49-1.46,2.13-3.81,3.04-5.81,3.19-7.08,10.28-11.28,17.77-10.45,7.88.87,13.71,6.36,15.16,14.28,2.1,11.45-8.32,21.56-20.44,19.09-4.17-.85-6.3.73-8.7,3.11-10.2,10.1-20.37,20.22-30.57,30.32-3.19,3.16-6.28,6.45-9.7,9.35-5.41,4.61-10.53,4.25-15.59-.76-7.01-6.94-14.03-13.87-20.97-20.88-4.19-4.24-4.94-8.08-2.71-12.48,3.08-6.07,10.34-7.67,15.37-3.09,4.61,4.2,8.86,8.78,13.29,13.18,1.13,1.13,2.34,2.18,3.53,3.29Z"/>
  <path class="cls-1" d="m54.21,475.94c.68,2.59,1.44,5.15,2.03,7.76,3.29,14.62,10.91,26.75,21.92,36.63,9.09,8.15,19.37,14.31,31.17,18.23,17.61,5.86,35.62,7.78,53.96,7,6.26-.27,12.51-1.77,18.67-3.1,5.25-1.13,10.38-2.83,15.57-4.27.44,6.6-.93,12.82-3.82,18.75-1.26,2.59-2.87,3.85-6.03,3.83-19.47-.16-38.94.09-58.4-.13-15.07-.17-28.08-6.46-40.08-14.98-14.44-10.26-24.39-24.1-31.09-40.35-3.6-8.74-4.96-17.91-4.57-27.33.03-.69.43-1.37.66-2.05Z"/>
  <path class="cls-2" d="m29.62,138.41c-.54-6.31-1.54-12.61-1.53-18.92.02-17.62,6.14-32.9,17.97-46.12,9.42-10.52,20.74-17.69,34.23-21.39,12.98-3.56,26-2.81,38.49,1.97,9.82,3.76,18.59,9.52,25.65,17.51,3.2,3.61,6.07,7.51,9.18,11.2,1.8,2.14,1.12,3.53-1,4.78-1.69,1-3.3,2.11-5.11,3.27-7.22-8.61-15.26-15.86-25.35-20.28-18.35-8.04-36.4-7.72-54.11,2.27-17.43,9.83-26.26,25.32-29.28,44.42-.94,5.96-.09,12.21-.07,18.33-.42.5-1.25,1.38-1.19,1.46.76.84,1.65,1.56,2.5,2.31.04,1.22.08,2.44.11,3.65-1.09,2.1-.71,5.26-4.95,5.97.75-1.54,1.47-2.47,1.62-3.49.19-1.26-.11-2.6-.19-3.9-1.12.24-2.25.43-3.34.75-.56.16-1.05.56-1.57.86-.46-1.04-.93-2.07-1.39-3.11-.22-.51-.45-1.03-.67-1.54Z"/>
  <path class="cls-1" d="m345.37,538.16c2.31.78,4.62,1.57,6.94,2.34,13.73,4.52,27.92,6.02,42.22,5.06,9.73-.65,19.48-2.16,29.01-4.24,10.49-2.29,20.49-6.55,29.68-12.03,7.86-4.68,15.26-10.53,20.3-18.35,4.46-6.91,8.14-14.37,11.68-21.82,1.33-2.8,1.15-6.28,1.92-9.38.22-.9,1.35-1.57,2.05-2.35-.46,14.46-3.51,28.13-11.11,40.73-7.39,12.25-16.92,22.38-28.77,30.16-9.35,6.14-19.47,11.28-30.94,11.6-21.31.59-42.64.61-63.96.81-4.68.04-5.5-4.3-6.41-7.2-1.54-4.9-1.81-10.2-2.61-15.33Z"/>
  <path class="cls-2" d="m124.11,105.51c-4.67,3.68-9.38,7.3-13.99,11.04-12,9.74-23.24,20.27-32.97,32.33-3.32,4.12-6.7,8.18-10.32,12.6-6.83-7.44-8.54-16.22-9.53-25.28.23-.42.63-.82.67-1.27,1.1-10.67,4.91-19.97,12.73-27.64,8.15-7.99,17.87-11.92,29.06-11.44,9.05.39,17.34,3.65,24.35,9.66Z"/>
  <path class="cls-1" d="m482.58,443.67c-1.2.83-2.6,1.46-3.57,2.51-7.4,7.93-16.57,13.25-26.11,18.09-12.5,6.34-24.86,12.96-37.38,19.26-8.26,4.16-16.72,7.94-25.03,11.99-3.78,1.85-7.53,3.79-11.12,5.98-8.67,5.29-17.99,9.71-24.92,17.47-2.04,2.29-3.67,4.94-5.59,7.35-.49.61-1.34.94-2.03,1.39.95-3.67,1.41-7.57,2.93-10.98,4.45-9.97,10.78-18.74,19.63-25.22,3.91-2.86,8.7-4.56,13.19-6.58,10.63-4.79,21.41-9.23,31.93-14.24,7.81-3.72,15.33-8.04,22.93-12.2,12.87-7.04,24.29-16.01,34.56-26.44,1.84-1.87,3.65-2.66,5.07-.09,2.08,3.76,3.7,7.78,5.51,11.69Z"/>
  <path class="cls-1" d="m196.03,527.71c-1.19-1.3-2.29-2.72-3.6-3.89-5.71-5.1-10.89-11.13-17.37-14.96-14.51-8.6-29.62-16.22-44.6-24.01-11.64-6.06-23.65-11.45-35.14-17.78-9.74-5.36-19.75-10.51-27.68-18.64-2.25-2.31-4.43-4.67-6.64-7.01,1.6-3.36,3.02-6.82,4.87-10.04,1.34-2.33,3.15-.74,4.4.31,6.38,5.34,12.55,10.92,19,16.17,9.05,7.37,19.26,12.98,29.52,18.42,6.45,3.42,13.04,6.59,19.69,9.6,8.92,4.04,17.94,7.84,26.94,11.69,8.26,3.54,14.44,9.51,19.92,16.45,4.52,5.72,7.98,11.94,9.96,18.95.43,1.53.5,3.17.73,4.76Z"/>
  <path class="cls-4" d="m224.5,539.71c7.48,1.01,14.92,2.36,22.43,2.93,10.88.82,21.84,1.82,32.7,1.36,11.7-.5,23.34-2.59,35.01-3.97,1.35-.16,2.71-.25,4.07-.38,1.12,6.87,2.24,13.73,3.4,20.82h-101.08c1.15-6.89,2.31-13.82,3.47-20.76Z"/>
  <path class="cls-2" d="m501.23,143.71c4.73-19.65,3.12-38.48-8.7-55.36-9.35-13.36-21.94-22.3-38.69-24.07-4.67-.49-8.77-1.55-12.32-5.03-2.93-2.87-6.63-4.95-9.99-7.38.1-.51.2-1.01.3-1.52,6.98-.06,14.01-.62,20.94-.04,8.7.72,16.96,3.28,24.78,7.51,9.74,5.27,17.54,12.53,23.73,21.51,6.36,9.22,11.03,19.28,12.28,30.54,1.38,12.38,1.56,24.72-3.62,36.5-1.33,3.03-2.31,6.2-3.46,9.31-4.06.17-.32-2.35-1.41-3.07-1.55-1.72-3.1-3.44-4.65-5.16.02-.5.05-1.01.07-1.51.71-.31,1.42-.62,2.12-.93-.47-.43-.94-.86-1.4-1.29Z"/>
  <path class="cls-4" d="m323.9,509.01c-4.77.72-9.53,1.9-14.32,2.08-18.65.71-37.31,1.47-55.96,1.44-9-.02-17.98-1.8-26.99-2.68-2.47-.24-4.98-.12-7.48-.17-1.51-2.97-3.02-5.95-4.32-8.51,18.8,1.07,37.61,2.61,56.45,3.07,18.98.46,37.91-1.04,57.29-4.45-1.72,3.38-3.2,6.3-4.68,9.21Z"/>
  <path class="cls-1" d="m124.11,105.51c-7.01-6.01-15.3-9.27-24.35-9.66-11.19-.48-20.91,3.45-29.06,11.44-7.82,7.67-11.63,16.98-12.73,27.64-.05.44-.44.84-.67,1.27,0-4.26-.52-8.6.12-12.76,1.99-13.01,8.24-23.57,19.61-30.56,8.47-5.21,17.78-6.05,27.58-4.91,8.7,1.01,15.7,5.05,22.29,10.3,1.16.92,2.44,1.69,4.47,3.08-3.29,1.89-5.27,3.02-7.25,4.16Z"/>
  <path class="cls-1" d="m31.69,143.06c.52-.29,1.01-.69,1.57-.86,1.09-.32,2.22-.51,3.34-.75.09,1.3.38,2.64.19,3.9-.15,1.02-.88,1.95-1.62,3.49,4.24-.71,3.87-3.87,4.95-5.97.69,1.2,1.6,2.33,2.05,3.61,3.38,9.65,9.06,17.86,16.06,25.63-1.44,1.87-2.77,3.59-4.8,6.24-3.93-4.42-7.98-8.09-10.93-12.5-3.89-5.82-6.99-12.18-10.23-18.4-.64-1.23-.41-2.91-.58-4.39Z"/>
  <path class="cls-1" d="m500.44,147.44c1.55,1.72,3.1,3.44,4.65,5.16,1.09.72-2.65,3.24,1.41,3.07-3.98,8.27-11.67,17.71-17.67,21.67-4.62-4.85-4.28-4.61-.45-10.07,3.74-5.33,6.68-11.21,10-16.83.62-1.04,1.37-2,2.07-3Z"/>
  <path class="cls-1" d="m485.48,127.44c.32,9.34-.86,17.78-5.21,26.5-.34-1.4-.65-2.02-.61-2.61.42-5.42,1.13-10.82,1.3-16.25.11-3.33,1.31-5.63,4.52-7.64Z"/>
  <path class="cls-1" d="m40.01,139.22c-.85-.75-1.75-1.47-2.5-2.31-.06-.07.77-.95,1.19-1.46.44,1.25.88,2.51,1.31,3.76Z"/>
  <path class="cls-1" d="m501.23,143.71c.47.43.94.86,1.4,1.29-.71.31-1.42.62-2.12.93.24-.74.48-1.48.72-2.22Z"/>
  <path class="cls-1" d="m29.62,138.41c.22.51.45,1.03.67,1.54-.22-.51-.45-1.03-.67-1.54Z"/>
  <path class="cls-1" d="m479.08,155.49c.09.03.26.06.26.1,0,.11-.06.21-.1.32-.09-.03-.26-.06-.26-.1,0-.11.06-.21.1-.32Z"/>
  <path class="cls-6" d="m88.22,321.26c.95-21.87,8.67-39.66,21.54-55.33,9.55-11.63,20.73-21.29,34.88-26.99,32.49-13.07,65.2,1.03,79.22,33.62,9.57,22.25,6.17,43.5-4.17,64.16-9.98,19.94-24.66,35.52-45.91,43.52-43.42,16.36-78.65-15.7-84.27-48.47-.67-3.93-.98-7.92-1.29-10.51Zm62.88,13.21c10.41-.04,18.66-8.18,18.63-18.39-.03-9.93-8.25-18.4-17.86-18.39-10.9,0-19.7,8.51-19.53,18.88.17,9.84,8.65,17.94,18.75,17.9Z"/>
  <path class="cls-6" d="m372.51,233.71c17.13-.42,31.95,5.46,45.05,15.83,19.37,15.33,31.84,35.09,36.81,59.42,6.97,34.1-18.12,69.65-52.52,74.84-18.83,2.84-35.38-2.29-50.12-13.66-19.92-15.37-31.82-35.7-36.24-60.48-5.56-31.15,13.68-63.91,43.19-73.04,4.48-1.39,9.21-1.95,13.83-2.9Zm38.85,82.37c-.02-9.97-8.65-18.46-18.75-18.44-10.72.02-18.89,8.1-18.8,18.59.09,10.26,8.28,18.25,18.71,18.26,10.89.01,18.87-7.78,18.84-18.41Z"/>
  <path class="cls-6" d="m272.23,405.49c-10.11,11.01-29.49,9.51-38.33-4.39-2.27-3.58-3.73-7.65-1.73-11.67.98-1.98,3.26-4.17,5.26-4.54,1.98-.37,4.64,1.06,6.5,2.39,1.75,1.25,2.68,3.58,4.27,5.14,3.22,3.18,8.28,3.64,11.62,1.29,2.8-1.97,4.56-8.31,2.83-11.57-.67-1.26-2.4-2.01-3.74-2.84-5.65-3.47-10.24-7.69-10.46-14.9-.17-5.74,3.04-10.9,8.68-11.37,9.77-.83,19.76-1.4,29.44-.27,9.52,1.11,12.94,12.75,6.51,20.02-2.26,2.56-5.26,4.54-8.16,6.43-3.5,2.28-4.67,5.01-3.36,10.24.89,3.56,3.53,5.26,7.07,5.62,3.65.37,6.56-1.06,8.84-3.84.55-.67.97-1.45,1.46-2.17,2.77-4.16,5.59-5.42,8.94-4.02,3.53,1.48,5.59,5.74,4.83,9.98-1.42,7.92-10.22,15.57-19.68,17.23-8.05,1.41-15.12-.15-20.79-6.75Z"/>
  <path class="cls-5" d="m151.1,334.47c-10.1.04-18.59-8.06-18.75-17.9-.17-10.37,8.63-18.88,19.53-18.88,9.61,0,17.83,8.47,17.86,18.39.03,10.2-8.23,18.35-18.63,18.39Z"/>
  <path class="cls-5" d="m411.36,316.08c.03,10.63-7.95,18.42-18.84,18.41-10.43-.01-18.62-8.01-18.71-18.26-.09-10.49,8.08-18.57,18.8-18.59,10.1-.02,18.73,8.47,18.75,18.44Z"/>
</svg>